<?xml version="1.0" encoding="UTF-8"?>
<svg id="Layer_1" xmlns="http://www.w3.org/2000/svg" version="1.1" viewBox="0 0 113.39 141.73">
  <!-- Generator: Adobe Illustrator 30.2.1, SVG Export Plug-In . SVG Version: 2.1.1 Build 1)  -->
  <defs>
    <style>
      .st0 {
        fill-rule: evenodd;
      }

      .st0, .st1 {
        fill: #fff;
      }
    </style>
  </defs>
  <g>
    <polygon class="st0" points="97.23 105.21 114.19 141.73 106.3 141.73 97.23 117.71 88.16 141.73 80.27 141.73 97.23 105.21 97.23 105.21"/>
    <polygon class="st0" points="-.8 141.73 -.8 135.78 -.8 105.83 5.15 109.8 5.15 135.78 16.78 135.78 20.75 141.73 5.15 141.73 -.8 141.73 -.8 141.73"/>
    <path class="st0" d="M20.09,105.83l5.95,3.97v18.3c0,4.21,3.46,7.67,7.67,7.67s7.67-3.46,7.67-7.67v-22.27h5.95v22.27c0,7.5-6.13,13.63-13.63,13.63h0c-7.5,0-13.63-6.13-13.63-13.63v-22.27h0Z"/>
    <path class="st0" d="M79.89,133.08c-2.16,1.76-7.84,3.21-10.84,3.21-6.91,0-12.51-5.6-12.51-12.51s5.6-12.51,12.51-12.51c3,0,6.31.92,8.47,2.69v-6.42c-2.39-1.17-5.63-1.7-8.47-1.7-9.91,0-17.95,8.04-17.95,17.95s8.04,17.95,17.95,17.95c2.84,0,5.52-.67,7.91-1.84l2.93-6.81Z"/>
  </g>
  <g>
    <path class="st1" d="M31.6,67.83c-6.42-6.42-10.39-15.29-10.39-25.09,0-7.46,2.31-14.39,6.24-20.1h-8.49c-3.2,5.99-5.02,12.84-5.02,20.1,0,11.8,4.79,22.49,12.52,30.22,4.99,4.99,11.22,8.76,18.18,10.8l-6.06-10.5c-2.55-1.51-4.89-3.34-6.98-5.43Z"/>
    <path class="st1" d="M56.69,7.26c9.8,0,18.67,3.97,25.09,10.39,2.83,2.83,5.18,6.13,6.93,9.78l4.24-7.34c-1.72-2.75-3.75-5.29-6.03-7.58C79.18,4.79,68.49,0,56.69,0s-21.8,4.48-29.47,11.78h12.13c5.13-2.88,11.04-4.52,17.34-4.52Z"/>
    <path class="st1" d="M92.17,43.15c-.11,9.64-4.06,18.35-10.39,24.69-6.42,6.42-15.29,10.39-25.09,10.39-.93,0-1.85-.04-2.76-.11l1.12,1.94,3.12,5.4c11.21-.38,21.33-5.09,28.74-12.49,7.73-7.73,12.52-18.42,12.52-30.22,0-3.48-.42-6.86-1.2-10.09l-6.07,10.5Z"/>
    <path class="st1" d="M100.88,13.6h-10.48c1.48,1.72,2.85,3.57,4.08,5.55l.57.91-.46.8h0l-3.2,5.54-1.12,1.94-1.71,2.98-12.91,22.36h0s-12.79,22.16-12.79,22.16c2.33-.43,4.58-1.1,6.71-1.98,1.34-.56,2.64-1.2,3.89-1.92l8.45-14.64h0s22.09-38.26,22.09-38.26l3.15-5.45h-6.28Z"/>
    <path class="st1" d="M17.36,21.82l.51-.95h.92,0s6.4,0,6.4,0h0s2.24,0,2.24,0h3.43s0,0,0,0h51.42c-1.54-1.81-3.25-3.42-5.08-4.83-1.16-.89-2.38-1.7-3.64-2.43H6.23l3.14,5.45,5.23,9.07c.75-2.14,1.66-4.24,2.76-6.3Z"/>
    <path class="st1" d="M57.15,87.31l-.45-.79h0s-4.33-7.49-4.33-7.49l-1.72-2.97-12.92-22.37-12.79-22.15c-.8,2.24-1.34,4.52-1.64,6.81-.19,1.44-.29,2.89-.29,4.34l8.45,14.63,22.09,38.27,3.13,5.42,3.14-5.44,5.23-9.05c-2.22.42-4.5.68-6.82.76l-1.08.04Z"/>
  </g>
</svg>